<svg version="1.1" id="Layer_1" xmlns="http://www.w3.org/2000/svg" x="0" y="0" viewBox="0 0 93 93" style="enable-background:new 0 0 93 93" xml:space="preserve"><style>.st2{fill-rule:evenodd;clip-rule:evenodd;fill:#fff}</style><path id="Fill-1" d="M24.1 28.6h-3V33h3c1.4 0 2.3-.9 2.3-2.2.1-1.3-.8-2.2-2.3-2.2zm.2 7.3h-3.1V42H18V25.8h6.3c3.3 0 5.3 2.3 5.3 5s-2 5.1-5.3 5.1z" style="fill:#fff"/><defs><filter id="Adobe_OpacityMaskFilter" filterUnits="userSpaceOnUse" x="33.4" y="25.8" width="3.2" height="16.2"><feColorMatrix values="1 0 0 0 0 0 1 0 0 0 0 0 1 0 0 0 0 0 1 0"/></filter></defs><mask maskUnits="userSpaceOnUse" x="33.4" y="25.8" width="3.2" height="16.2" id="mask-2_1_"><g style="filter:url(#Adobe_OpacityMaskFilter)"><path id="path-1_2_" class="st2" d="M0 92h91V0H0z"/></g></mask><path id="Fill-3" style="mask:url(#mask-2_1_);fill:#fff" d="M33.4 41.9h3.2V25.8h-3.2z"/><defs><filter id="Adobe_OpacityMaskFilter_1_" filterUnits="userSpaceOnUse" x="39.7" y="25.8" width="13.5" height="16.2"><feColorMatrix values="1 0 0 0 0 0 1 0 0 0 0 0 1 0 0 0 0 0 1 0"/></filter></defs><mask maskUnits="userSpaceOnUse" x="39.7" y="25.8" width="13.5" height="16.2" id="mask-4_1_"><g style="filter:url(#Adobe_OpacityMaskFilter_1_)"><path id="path-3_1_" class="st2" d="M0 90h91V0H0z"/></g></mask><path id="Fill-5" style="mask:url(#mask-4_1_);fill:#fff" d="m49.5 41.9-3.1-5.6-3.1 5.6h-3.6l5-8.3-4.7-7.8h3.6l2.8 5.2 2.8-5.2h3.6l-4.7 7.8 5 8.3z"/><defs><filter id="Adobe_OpacityMaskFilter_2_" filterUnits="userSpaceOnUse" x="56.3" y="25.8" width="3.2" height="16.2"><feColorMatrix values="1 0 0 0 0 0 1 0 0 0 0 0 1 0 0 0 0 0 1 0"/></filter></defs><mask maskUnits="userSpaceOnUse" x="56.3" y="25.8" width="3.2" height="16.2" id="mask-6_1_"><g style="filter:url(#Adobe_OpacityMaskFilter_2_)"><path id="path-5_1_" class="st2" d="M0 91h91V0H0z"/></g></mask><path id="Fill-6" style="mask:url(#mask-6_1_);fill:#fff" d="M56.3 41.9h3.1V25.8h-3.1z"/><defs><filter id="Adobe_OpacityMaskFilter_3_" filterUnits="userSpaceOnUse" x="64.3" y="25.8" width="10.6" height="16.2"><feColorMatrix values="1 0 0 0 0 0 1 0 0 0 0 0 1 0 0 0 0 0 1 0"/></filter></defs><mask maskUnits="userSpaceOnUse" x="64.3" y="25.8" width="10.6" height="16.2" id="mask-8_1_"><g style="filter:url(#Adobe_OpacityMaskFilter_3_)"><path id="path-7_1_" class="st2" d="M0 91h91V0H0z"/></g></mask><path id="Fill-7" style="mask:url(#mask-8_1_);fill:#fff" d="M64.3 41.9V25.8H75v2.8h-7.5v3.8h6.4v2.8h-6.4v3.9H75v2.8z"/><defs><filter id="Adobe_OpacityMaskFilter_4_" filterUnits="userSpaceOnUse" x="18.1" y="50.9" width="9.8" height="16.2"><feColorMatrix values="1 0 0 0 0 0 1 0 0 0 0 0 1 0 0 0 0 0 1 0"/></filter></defs><mask maskUnits="userSpaceOnUse" x="18.1" y="50.9" width="9.8" height="16.2" id="mask-10_1_"><g style="filter:url(#Adobe_OpacityMaskFilter_4_)"><path id="path-9_1_" class="st2" d="M0 91h91V0H0z"/></g></mask><path id="Fill-8" style="mask:url(#mask-10_1_);fill:#fff" d="M18.1 67.1V50.9h1.2V66h8.6v1.1z"/><defs><filter id="Adobe_OpacityMaskFilter_5_" filterUnits="userSpaceOnUse" x="32.2" y="50.9" width="13" height="16.2"><feColorMatrix values="1 0 0 0 0 0 1 0 0 0 0 0 1 0 0 0 0 0 1 0"/></filter></defs><mask maskUnits="userSpaceOnUse" x="32.2" y="50.9" width="13" height="16.2" id="mask-12_1_"><g style="filter:url(#Adobe_OpacityMaskFilter_5_)"><path id="path-11_1_" class="st2" d="M0 90h89V0H0z"/></g></mask><path id="Fill-9" d="m38.7 52.6-3.4 9.5h6.8l-3.4-9.5zm5.2 14.5-1.4-3.9H35l-1.4 3.9h-1.3l5.9-16.2h1.1l5.9 16.2h-1.3z" style="mask:url(#mask-12_1_);fill:#fff"/><defs><filter id="Adobe_OpacityMaskFilter_6_" filterUnits="userSpaceOnUse" x="49.1" y="50.9" width="10.9" height="16.2"><feColorMatrix values="1 0 0 0 0 0 1 0 0 0 0 0 1 0 0 0 0 0 1 0"/></filter></defs><mask maskUnits="userSpaceOnUse" x="49.1" y="50.9" width="10.9" height="16.2" id="mask-14_1_"><g style="filter:url(#Adobe_OpacityMaskFilter_6_)"><path id="path-13_1_" class="st2" d="M0 90h91V0H0z"/></g></mask><path id="Fill-10" d="M55.1 59.4h-4.8V66h4.8c2.2 0 3.7-1.2 3.7-3.3 0-2.1-1.5-3.3-3.7-3.3M55 52h-4.6v6.3H55c2 0 3.6-.9 3.6-3.1-.1-2.3-1.7-3.2-3.6-3.2m.3 15.1h-6.1V50.9h5.9c2.7 0 4.7 1.5 4.7 4.2 0 1.7-1 3.1-2.5 3.6 1.7.6 2.8 2 2.8 3.9-.1 3-2 4.5-4.8 4.5" style="mask:url(#mask-14_1_);fill:#fff"/><defs><filter id="Adobe_OpacityMaskFilter_7_" filterUnits="userSpaceOnUse" x="64.2" y="50.8" width="10.8" height="16.4"><feColorMatrix values="1 0 0 0 0 0 1 0 0 0 0 0 1 0 0 0 0 0 1 0"/></filter></defs><mask maskUnits="userSpaceOnUse" x="64.2" y="50.8" width="10.8" height="16.4" id="mask-16_1_"><g style="filter:url(#Adobe_OpacityMaskFilter_7_)"><path id="path-15_1_" class="st2" d="M0 91h92V0H0z"/></g></mask><path id="Fill-11" d="M69.5 67.2c-2.4 0-3.9-.7-5.4-2.1l.9-.9c1.5 1.5 2.6 1.9 4.6 1.9 2.5 0 4.2-1.2 4.2-3.3 0-1-.3-1.7-.9-2.3-.6-.5-1-.7-2.3-.9l-1.9-.3c-1.2-.2-2.2-.6-2.9-1.2-.9-.7-1.3-1.7-1.3-3 0-2.7 1.9-4.4 5-4.4 2 0 3.3.5 4.7 1.7l-.8.8c-1-.9-2-1.5-3.9-1.5-2.3 0-3.7 1.3-3.7 3.3 0 .9.3 1.6.8 2.1.6.5 1.5.9 2.4 1l1.7.3c1.5.2 2.2.5 2.9 1.1.9.7 1.4 1.8 1.4 3.1 0 2.9-2.1 4.6-5.5 4.6" style="mask:url(#mask-16_1_);fill:#fff"/><defs><filter id="Adobe_OpacityMaskFilter_8_" filterUnits="userSpaceOnUse" x="33.4" y="15.8" width="3.2" height="3.2"><feColorMatrix values="1 0 0 0 0 0 1 0 0 0 0 0 1 0 0 0 0 0 1 0"/></filter></defs><mask maskUnits="userSpaceOnUse" x="33.4" y="15.8" width="3.2" height="3.2" id="mask-18_1_"><g style="filter:url(#Adobe_OpacityMaskFilter_8_)"><path id="path-17_1_" class="st2" d="M0 89h88V0H0z"/></g></mask><path id="Fill-12" style="mask:url(#mask-18_1_);fill:#3ab28d" d="M33.4 19h3.2v-3.2h-3.2z"/><defs><filter id="Adobe_OpacityMaskFilter_9_" filterUnits="userSpaceOnUse" x="56.3" y="3.5" width="3.2" height="3.2"><feColorMatrix values="1 0 0 0 0 0 1 0 0 0 0 0 1 0 0 0 0 0 1 0"/></filter></defs><mask maskUnits="userSpaceOnUse" x="56.3" y="3.5" width="3.2" height="3.2" id="mask-20_1_"><g style="filter:url(#Adobe_OpacityMaskFilter_9_)"><path id="path-19_1_" class="st2" d="M0 90h90V0H0z"/></g></mask><path id="Fill-13" style="mask:url(#mask-20_1_);fill:#3ab28d" d="M56.3 6.6h3.1V3.5h-3.1z"/><defs><filter id="Adobe_OpacityMaskFilter_10_" filterUnits="userSpaceOnUse" x="0" y="0" width="93" height="93"><feColorMatrix values="1 0 0 0 0 0 1 0 0 0 0 0 1 0 0 0 0 0 1 0"/></filter></defs><mask maskUnits="userSpaceOnUse" x="0" y="0" width="93" height="93" id="mask-22_1_"><g style="filter:url(#Adobe_OpacityMaskFilter_10_)"><path id="path-21_1_" class="st2" d="M0 93h93V0H0z"/></g></mask><path id="Fill-14" style="mask:url(#mask-22_1_);fill:#fff" d="M59.4 0v3.4h30.2v86.2H3.4V3.4h30V0H0v93h93V0z"/><defs><filter id="Adobe_OpacityMaskFilter_11_" filterUnits="userSpaceOnUse" x="36.6" y="0" width="19.7" height="3.5"><feColorMatrix values="1 0 0 0 0 0 1 0 0 0 0 0 1 0 0 0 0 0 1 0"/></filter></defs><mask maskUnits="userSpaceOnUse" x="36.6" y="0" width="19.7" height="3.5" id="mask-24_1_"><g style="filter:url(#Adobe_OpacityMaskFilter_11_)"><path id="path-23_1_" class="st2" d="M0 91h92V0H0z"/></g></mask><path id="Fill-15" style="mask:url(#mask-24_1_);fill:#fff" d="M36.6 3.5h19.7V0H36.6z"/></svg>